<svg width="149" height="55" viewBox="0 0 149 55" fill="none" xmlns="http://www.w3.org/2000/svg">
<path d="M49.7212 33.0949H45.6733V31.7456H55.4557V33.0949H51.3235V43.8892H49.7212V33.0949Z" fill="#F6921E"/>
<path d="M54.8653 35.1187H56.2146V36.974C56.8893 35.5404 57.9012 34.8657 59.4192 34.8657V36.3837C57.0579 36.3837 56.2146 37.733 56.2146 39.9256V43.8891H54.781V35.1187H54.8653Z" fill="#F6921E"/>
<path d="M68.0208 43.8894C67.7678 44.058 67.4305 44.1424 67.0089 44.1424C66.2499 44.1424 65.7439 43.7207 65.7439 42.7931C64.9006 43.7207 63.8886 44.1424 62.6237 44.1424C61.0214 44.1424 59.6721 43.4677 59.6721 41.6968C59.6721 39.6728 61.1901 39.2512 62.6237 38.9982C64.226 38.6609 65.5753 38.8295 65.5753 37.7332C65.5753 36.4683 64.479 36.2996 63.6356 36.2996C62.3707 36.2996 61.5274 36.6369 61.4431 37.9862H60.0094C60.0938 35.7936 61.7804 35.0347 63.72 35.0347C65.3223 35.0347 67.0089 35.372 67.0089 37.4803V42.0341C67.0089 42.7087 67.0089 43.0461 67.4305 43.0461C67.5992 43.0461 67.6835 43.0461 67.8522 42.9617V43.8894H68.0208ZM65.6596 39.4199C64.5633 40.2632 61.2744 39.4199 61.2744 41.6124C61.2744 42.5401 62.1177 42.8774 62.961 42.8774C64.9006 42.8774 65.6596 41.6968 65.6596 40.8535V39.4199Z" fill="#F6921E"/>
<path d="M77.2129 43.9735H75.7793V42.7929C75.2733 43.8049 74.177 44.2265 72.9963 44.2265C70.2978 44.2265 68.9485 42.0339 68.9485 39.5883C68.9485 37.1428 70.2978 34.9502 72.9963 34.9502C73.924 34.9502 75.1889 35.2875 75.8636 36.2994V31.7456H77.2972V43.9735H77.2129ZM73.165 42.8772C75.1046 42.8772 75.8636 41.1906 75.8636 39.504C75.8636 37.8174 75.1046 36.1308 73.0807 36.1308C71.0567 36.1308 70.4664 37.8174 70.4664 39.5883C70.3821 41.275 71.2254 42.8772 73.165 42.8772Z" fill="#F6921E"/>
<path d="M81.0078 33.5165H79.5742V31.7456H81.0078V33.5165ZM79.5742 35.1188H81.0078V43.9735H79.5742V35.1188Z" fill="#F6921E"/>
<path d="M83.2847 35.1189H84.634V36.5525C85.2243 35.4562 86.2362 34.9502 87.5012 34.9502C89.8624 34.9502 90.5371 36.2995 90.5371 38.1548V43.9736H89.1035V37.9861C89.1035 36.8898 88.4288 36.2152 87.3325 36.2152C85.5616 36.2152 84.7183 37.3958 84.7183 38.9981V43.9736H83.2847V35.1189Z" fill="#F6921E"/>
<path d="M100.404 43.2144C100.404 46.0817 99.1387 47.5153 96.2715 47.5153C94.5849 47.5153 92.7296 46.8406 92.6453 44.901H94.0789C94.1632 45.913 95.4282 46.3347 96.3558 46.3347C98.2111 46.3347 98.9701 44.9854 98.9701 42.9614V42.3711C98.4641 43.4674 97.3678 43.9734 96.1872 43.9734C93.5729 43.9734 92.2236 41.8652 92.2236 39.5039C92.2236 37.3956 93.2356 34.8657 96.2715 34.8657C97.3678 34.8657 98.3798 35.3717 98.8857 36.2993V35.0344H100.235V43.2144H100.404ZM98.9701 39.3352C98.9701 37.8173 98.2954 36.215 96.4402 36.215C94.5849 36.215 93.8259 37.733 93.8259 39.4196C93.8259 41.0218 94.4162 42.7928 96.3558 42.7928C98.2954 42.7928 98.9701 41.0218 98.9701 39.3352Z" fill="#F6921E"/>
<path d="M18.266 5.85634V0.290527H0.80957V54.009H18.266V48.4432H6.37538V5.85634H18.266Z" fill="#F6921E"/>
<path d="M131.353 0.290527V5.85634H143.244V48.4432H131.353V54.009H148.809V0.290527H131.353Z" fill="#F6921E"/>
<path d="M21.8922 22.2165C21.8922 22.5538 21.9765 22.8911 22.0609 23.1441C22.3982 23.9874 23.3258 24.1561 24.0848 24.1561C24.7594 24.1561 25.8557 23.9031 25.8557 22.8911C25.8557 22.2165 25.2654 21.9635 22.9042 21.2889C20.7116 20.6985 18.266 20.1082 18.266 17.3253C18.266 14.2051 20.9646 12.7715 23.7475 12.7715C26.699 12.7715 29.3133 13.8678 29.4819 17.241H25.5184C25.6027 16.735 25.3498 16.3977 25.0124 16.1447C24.6751 15.8917 24.1691 15.8074 23.7475 15.8074C23.1572 15.8074 22.2295 15.976 22.2295 16.735C22.3139 17.747 24.2535 17.9156 26.1931 18.4216C28.1327 18.9276 30.0723 19.8552 30.0723 22.3852C30.0723 25.927 26.7834 27.1077 23.7475 27.1077C22.2295 27.1077 17.76 26.5174 17.76 22.2165H21.8922Z" fill="white"/>
<path d="M41.6256 26.7703H37.9994V25.5054C37.3248 26.5173 36.3128 27.0233 34.7949 27.0233C33.0239 27.0233 31.4216 25.927 31.4216 23.6501V16.8193H35.2165V22.0478C35.2165 23.2285 35.3852 23.9874 36.4815 23.9874C37.1561 23.9874 37.9994 23.6501 37.9994 22.0478V16.8193H41.7943V26.7703H41.6256Z" fill="white"/>
<path d="M43.6495 16.9039H47.2757V18.5062C47.866 17.3255 48.7093 16.6509 50.0586 16.6509C50.4803 16.6509 50.8176 16.7352 51.1549 16.8195V20.1928C50.7333 20.0241 50.396 19.9398 49.637 19.9398C48.119 19.9398 47.3601 20.7831 47.3601 22.9757V26.9392H43.5652L43.6495 16.9039Z" fill="white"/>
<path d="M52.1667 16.9039H55.793V18.5062C56.3833 17.3255 57.2266 16.6509 58.5759 16.6509C58.9975 16.6509 59.3348 16.7352 59.6722 16.8195V20.1928C59.2505 20.0241 58.9132 19.9398 58.1542 19.9398C56.6363 19.9398 55.8773 20.7831 55.8773 22.9757V26.9392H52.1667V16.9039Z" fill="white"/>
<path d="M63.5515 22.7227C63.6358 23.819 64.3105 24.6623 65.4911 24.6623C66.0814 24.6623 66.7561 24.4093 67.0934 23.9876H70.6353C69.8763 26.0959 67.768 27.1079 65.4911 27.1079C62.2866 27.1079 59.9253 25.2526 59.9253 21.8794C59.9253 19.0121 62.0336 16.6509 65.1538 16.6509C69.1173 16.6509 70.8039 18.8435 70.8039 22.7227H63.5515ZM67.1777 20.6987C67.1777 19.7711 66.5031 19.0121 65.4911 19.0121C64.3948 19.0121 63.7202 19.6024 63.5515 20.6987H67.1777Z" fill="white"/>
<path d="M78.8997 26.0115C78.5624 26.8548 78.2251 28.0354 77.6348 28.7944C76.6228 30.0594 75.1048 30.0594 73.6712 30.0594H71.9846V27.0235H72.8279C73.2496 27.0235 73.6712 27.0235 74.0086 26.9391C74.2615 26.8548 74.3459 26.6018 74.3459 26.1802C74.3459 25.6742 72.9123 22.048 72.6593 21.4577L70.9727 16.9038H75.0205L76.6228 22.6383L78.2251 16.9038H82.1886L78.8997 26.0115Z" fill="white"/>
<path d="M87.5856 22.2165C87.5856 22.5538 87.6699 22.8911 87.7542 23.1441C88.0915 23.9874 89.0192 24.1561 89.7782 24.1561C90.4528 24.1561 91.5491 23.9031 91.5491 22.8911C91.5491 22.2165 90.9588 21.9635 88.5975 21.2889C86.4049 20.6985 83.9594 20.1082 83.9594 17.3253C83.9594 14.2051 86.6579 12.7715 89.4408 12.7715C92.3924 12.7715 95.0066 13.8678 95.1753 17.241H91.2118C91.2961 16.735 91.0431 16.3977 90.7058 16.1447C90.3685 15.8917 89.8625 15.8074 89.4408 15.8074C88.8505 15.8074 87.9229 15.976 87.9229 16.735C88.0072 17.747 89.9468 17.9156 91.8864 18.4216C93.826 18.9276 95.7656 19.8552 95.7656 22.3852C95.7656 25.927 92.4767 27.1077 89.4408 27.1077C87.9229 27.1077 83.4534 26.5174 83.4534 22.2165C83.4534 22.2165 87.5856 22.2165 87.5856 22.2165Z" fill="white"/>
<path d="M101.416 16.9036H103.44V19.2648H101.416V22.7224C101.416 23.65 101.584 24.0717 102.596 24.0717C102.849 24.0717 103.187 24.0717 103.44 23.9873V26.8546C102.681 26.8546 101.837 26.9389 100.994 26.9389C99.3919 26.9389 97.6209 26.6859 97.6209 23.9873V19.2648H95.9343V16.9036H97.6209V13.8677H101.416V16.9036Z" fill="white"/>
<path d="M107.656 22.7227C107.741 23.819 108.415 24.6623 109.596 24.6623C110.186 24.6623 110.861 24.4093 111.198 23.9876H114.74C113.981 26.0959 111.873 27.1079 109.596 27.1079C106.391 27.1079 104.03 25.2526 104.03 21.8794C104.03 19.0121 106.138 16.6509 109.259 16.6509C113.222 16.6509 114.909 18.8435 114.909 22.7227H107.656ZM111.367 20.6987C111.367 19.7711 110.692 19.0121 109.68 19.0121C108.584 19.0121 107.909 19.6024 107.741 20.6987H111.367Z" fill="white"/>
<path d="M119.294 22.7227C119.378 23.819 120.053 24.6623 121.234 24.6623C121.824 24.6623 122.498 24.4093 122.836 23.9876H126.378C125.619 26.0959 123.51 27.1079 121.234 27.1079C118.029 27.1079 115.668 25.2526 115.668 21.8794C115.668 19.0121 117.776 16.6509 120.896 16.6509C124.86 16.6509 126.546 18.8435 126.546 22.7227H119.294ZM122.92 20.6987C122.92 19.7711 122.245 19.0121 121.234 19.0121C120.137 19.0121 119.463 19.6024 119.294 20.6987H122.92Z" fill="white"/>
<path d="M127.811 13.1089H131.606V26.7704H127.811V13.1089Z" fill="white"/>
</svg>
